<?xml version="1.0" encoding="UTF-8" standalone="no"?>
<!DOCTYPE svg PUBLIC "-//W3C//DTD SVG 1.1//EN"
 "http://www.w3.org/Graphics/SVG/1.1/DTD/svg11.dtd">
<!-- Generated by graphviz version 2.40.1 (20161225.0304)
 -->
<!-- Title: workflow Pages: 1 -->
<svg width="620pt" height="298pt"
 viewBox="0.00 0.00 620.00 298.00" xmlns="http://www.w3.org/2000/svg" xmlns:xlink="http://www.w3.org/1999/xlink">
<g id="graph0" class="graph" transform="scale(1 1) rotate(0) translate(4 294)">
<title>workflow</title>
<polygon fill="#ffffff" stroke="transparent" points="-4,4 -4,-294 616,-294 616,4 -4,4"/>
<!-- place_6184d6847d594ec75c4c07514d4bb490d5e166df -->
<g id="node1" class="node">
<title>place_6184d6847d594ec75c4c07514d4bb490d5e166df</title>
<ellipse fill="#add8e6" stroke="#333333" cx="36" cy="-100" rx="36" ry="36"/>
<text text-anchor="middle" x="36" y="-97.8" font-family="Arial" font-size="9.00" fill="#000000">blank</text>
</g>
<!-- transition_ba7e1fe2e2c36556ceb098daab8915350d2162b2 -->
<g id="node7" class="node">
<title>transition_ba7e1fe2e2c36556ceb098daab8915350d2162b2</title>
<polygon fill="none" stroke="#333333" points="180,-136 108,-136 108,-64 180,-64 180,-136"/>
<text text-anchor="middle" x="144" y="-97.8" font-family="Arial" font-size="9.00" fill="#000000">create_code</text>
</g>
<!-- place_6184d6847d594ec75c4c07514d4bb490d5e166df&#45;&gt;transition_ba7e1fe2e2c36556ceb098daab8915350d2162b2 -->
<g id="edge1" class="edge">
<title>place_6184d6847d594ec75c4c07514d4bb490d5e166df&#45;&gt;transition_ba7e1fe2e2c36556ceb098daab8915350d2162b2</title>
<path fill="none" stroke="#333333" d="M72.2629,-100C81.969,-100 92.5352,-100 102.5004,-100"/>
<polygon fill="#333333" stroke="#333333" points="102.649,-101.7501 107.649,-100 102.649,-98.2501 102.649,-101.7501"/>
</g>
<!-- place_4858ba92ec21f96af837089e5c3d7e06fcbf313a -->
<g id="node2" class="node">
<title>place_4858ba92ec21f96af837089e5c3d7e06fcbf313a</title>
<ellipse fill="none" stroke="#333333" cx="252" cy="-154" rx="36" ry="36"/>
<text text-anchor="middle" x="252" y="-151.8" font-family="Arial" font-size="9.00" fill="#000000">deactivated</text>
</g>
<!-- transition_2c1e2b1daf8e75bbba55ee03e9b6e28c23686988 -->
<g id="node9" class="node">
<title>transition_2c1e2b1daf8e75bbba55ee03e9b6e28c23686988</title>
<polygon fill="none" stroke="#333333" points="396,-290 324,-290 324,-218 396,-218 396,-290"/>
<text text-anchor="middle" x="360" y="-251.8" font-family="Arial" font-size="9.00" fill="#000000">activate</text>
</g>
<!-- place_4858ba92ec21f96af837089e5c3d7e06fcbf313a&#45;&gt;transition_2c1e2b1daf8e75bbba55ee03e9b6e28c23686988 -->
<g id="edge6" class="edge">
<title>place_4858ba92ec21f96af837089e5c3d7e06fcbf313a&#45;&gt;transition_2c1e2b1daf8e75bbba55ee03e9b6e28c23686988</title>
<path fill="none" stroke="#333333" d="M278.4198,-178.4628C290.8635,-189.9847 305.9781,-203.9797 319.7999,-216.7777"/>
<polygon fill="#333333" stroke="#333333" points="318.8029,-218.2396 323.6607,-220.3525 321.1809,-215.6714 318.8029,-218.2396"/>
</g>
<!-- transition_9485989ff514b5106b7738850fd73c23e8c1e3f7 -->
<g id="node11" class="node">
<title>transition_9485989ff514b5106b7738850fd73c23e8c1e3f7</title>
<polygon fill="none" stroke="#333333" points="396,-200 324,-200 324,-128 396,-128 396,-200"/>
<text text-anchor="middle" x="360" y="-161.8" font-family="Arial" font-size="9.00" fill="#000000">delete</text>
</g>
<!-- place_4858ba92ec21f96af837089e5c3d7e06fcbf313a&#45;&gt;transition_9485989ff514b5106b7738850fd73c23e8c1e3f7 -->
<g id="edge10" class="edge">
<title>place_4858ba92ec21f96af837089e5c3d7e06fcbf313a&#45;&gt;transition_9485989ff514b5106b7738850fd73c23e8c1e3f7</title>
<path fill="none" stroke="#333333" d="M287.9624,-157.3299C297.7861,-158.2395 308.5095,-159.2324 318.6096,-160.1676"/>
<polygon fill="#333333" stroke="#333333" points="318.6863,-161.9321 323.8264,-160.6506 319.009,-158.447 318.6863,-161.9321"/>
</g>
<!-- place_9edfefa94b7affc5c196025d31e06b260d4439a0 -->
<g id="node3" class="node">
<title>place_9edfefa94b7affc5c196025d31e06b260d4439a0</title>
<ellipse fill="none" stroke="#333333" cx="252" cy="-55" rx="36" ry="36"/>
<text text-anchor="middle" x="252" y="-52.8" font-family="Arial" font-size="9.00" fill="#000000">code_created</text>
</g>
<!-- transition_6d0d5876e6710ebb4f309b5af01090cb97381d06 -->
<g id="node8" class="node">
<title>transition_6d0d5876e6710ebb4f309b5af01090cb97381d06</title>
<polygon fill="none" stroke="#333333" points="396,-72 324,-72 324,0 396,0 396,-72"/>
<text text-anchor="middle" x="360" y="-33.8" font-family="Arial" font-size="9.00" fill="#000000">print</text>
</g>
<!-- place_9edfefa94b7affc5c196025d31e06b260d4439a0&#45;&gt;transition_6d0d5876e6710ebb4f309b5af01090cb97381d06 -->
<g id="edge4" class="edge">
<title>place_9edfefa94b7affc5c196025d31e06b260d4439a0&#45;&gt;transition_6d0d5876e6710ebb4f309b5af01090cb97381d06</title>
<path fill="none" stroke="#333333" d="M287.6626,-48.726C297.5892,-46.9797 308.4539,-45.0683 318.6763,-43.2699"/>
<polygon fill="#333333" stroke="#333333" points="319.0149,-44.9873 323.6361,-42.3974 318.4084,-41.5402 319.0149,-44.9873"/>
</g>
<!-- place_0a2a5fb75e421181bc33cbe4cff3883b8bc3e0c5 -->
<g id="node4" class="node">
<title>place_0a2a5fb75e421181bc33cbe4cff3883b8bc3e0c5</title>
<ellipse fill="none" stroke="#333333" cx="468" cy="-254" rx="36" ry="36"/>
<text text-anchor="middle" x="468" y="-251.8" font-family="Arial" font-size="9.00" fill="#000000">activated</text>
</g>
<!-- transition_5d310091f52b45f4f934e07e2dcd85dc77eee56a -->
<g id="node10" class="node">
<title>transition_5d310091f52b45f4f934e07e2dcd85dc77eee56a</title>
<polygon fill="none" stroke="#333333" points="612,-213 540,-213 540,-141 612,-141 612,-213"/>
<text text-anchor="middle" x="576" y="-174.8" font-family="Arial" font-size="9.00" fill="#000000">deactivate</text>
</g>
<!-- place_0a2a5fb75e421181bc33cbe4cff3883b8bc3e0c5&#45;&gt;transition_5d310091f52b45f4f934e07e2dcd85dc77eee56a -->
<g id="edge8" class="edge">
<title>place_0a2a5fb75e421181bc33cbe4cff3883b8bc3e0c5&#45;&gt;transition_5d310091f52b45f4f934e07e2dcd85dc77eee56a</title>
<path fill="none" stroke="#333333" d="M497.5115,-232.9594C509.2949,-224.5583 523.0521,-214.7499 535.7283,-205.7123"/>
<polygon fill="#333333" stroke="#333333" points="536.926,-207.0076 539.9813,-202.68 534.8941,-204.1578 536.926,-207.0076"/>
</g>
<!-- place_1c8f15dab796c5c96b98fb02918198eec0c6b99e -->
<g id="node5" class="node">
<title>place_1c8f15dab796c5c96b98fb02918198eec0c6b99e</title>
<ellipse fill="none" stroke="#333333" cx="468" cy="-36" rx="36" ry="36"/>
<text text-anchor="middle" x="468" y="-33.8" font-family="Arial" font-size="9.00" fill="#000000">printed</text>
</g>
<!-- place_b639f5cc719831458c83999303237e8499c0cabe -->
<g id="node6" class="node">
<title>place_b639f5cc719831458c83999303237e8499c0cabe</title>
<ellipse fill="none" stroke="#333333" cx="468" cy="-164" rx="36" ry="36"/>
<text text-anchor="middle" x="468" y="-161.8" font-family="Arial" font-size="9.00" fill="#000000">deleted</text>
</g>
<!-- transition_ba7e1fe2e2c36556ceb098daab8915350d2162b2&#45;&gt;place_4858ba92ec21f96af837089e5c3d7e06fcbf313a -->
<g id="edge3" class="edge">
<title>transition_ba7e1fe2e2c36556ceb098daab8915350d2162b2&#45;&gt;place_4858ba92ec21f96af837089e5c3d7e06fcbf313a</title>
<path fill="none" stroke="#333333" d="M180.2629,-118.1314C191.4158,-123.7079 203.7042,-129.8521 214.9116,-135.4558"/>
<polygon fill="#333333" stroke="#333333" points="214.3874,-137.1502 219.6422,-137.8211 215.9527,-134.0197 214.3874,-137.1502"/>
</g>
<!-- transition_ba7e1fe2e2c36556ceb098daab8915350d2162b2&#45;&gt;place_9edfefa94b7affc5c196025d31e06b260d4439a0 -->
<g id="edge2" class="edge">
<title>transition_ba7e1fe2e2c36556ceb098daab8915350d2162b2&#45;&gt;place_9edfefa94b7affc5c196025d31e06b260d4439a0</title>
<path fill="none" stroke="#333333" d="M180.2629,-84.8905C191.094,-80.3775 202.9962,-75.4183 213.9391,-70.8587"/>
<polygon fill="#333333" stroke="#333333" points="214.622,-72.4701 218.5643,-68.9315 213.2758,-69.2393 214.622,-72.4701"/>
</g>
<!-- transition_6d0d5876e6710ebb4f309b5af01090cb97381d06&#45;&gt;place_1c8f15dab796c5c96b98fb02918198eec0c6b99e -->
<g id="edge5" class="edge">
<title>transition_6d0d5876e6710ebb4f309b5af01090cb97381d06&#45;&gt;place_1c8f15dab796c5c96b98fb02918198eec0c6b99e</title>
<path fill="none" stroke="#333333" d="M396.2629,-36C405.969,-36 416.5352,-36 426.5004,-36"/>
<polygon fill="#333333" stroke="#333333" points="426.649,-37.7501 431.649,-36 426.649,-34.2501 426.649,-37.7501"/>
</g>
<!-- transition_2c1e2b1daf8e75bbba55ee03e9b6e28c23686988&#45;&gt;place_0a2a5fb75e421181bc33cbe4cff3883b8bc3e0c5 -->
<g id="edge7" class="edge">
<title>transition_2c1e2b1daf8e75bbba55ee03e9b6e28c23686988&#45;&gt;place_0a2a5fb75e421181bc33cbe4cff3883b8bc3e0c5</title>
<path fill="none" stroke="#333333" d="M396.2629,-254C405.969,-254 416.5352,-254 426.5004,-254"/>
<polygon fill="#333333" stroke="#333333" points="426.649,-255.7501 431.649,-254 426.649,-252.2501 426.649,-255.7501"/>
</g>
<!-- transition_5d310091f52b45f4f934e07e2dcd85dc77eee56a&#45;&gt;place_4858ba92ec21f96af837089e5c3d7e06fcbf313a -->
<g id="edge9" class="edge">
<title>transition_5d310091f52b45f4f934e07e2dcd85dc77eee56a&#45;&gt;place_4858ba92ec21f96af837089e5c3d7e06fcbf313a</title>
<path fill="none" stroke="#333333" d="M540.8849,-140.9186C529.9916,-132.0197 517.321,-123.698 504,-119 428.5546,-92.392 401.9614,-101.055 324,-119 311.556,-121.8643 298.7704,-127.1807 287.4912,-132.8202"/>
<polygon fill="#333333" stroke="#333333" points="286.4043,-131.4109 282.7548,-135.2507 288.0023,-134.5248 286.4043,-131.4109"/>
</g>
<!-- transition_9485989ff514b5106b7738850fd73c23e8c1e3f7&#45;&gt;place_b639f5cc719831458c83999303237e8499c0cabe -->
<g id="edge11" class="edge">
<title>transition_9485989ff514b5106b7738850fd73c23e8c1e3f7&#45;&gt;place_b639f5cc719831458c83999303237e8499c0cabe</title>
<path fill="none" stroke="#333333" d="M396.2629,-164C405.969,-164 416.5352,-164 426.5004,-164"/>
<polygon fill="#333333" stroke="#333333" points="426.649,-165.7501 431.649,-164 426.649,-162.2501 426.649,-165.7501"/>
</g>
</g>
</svg>
