<?xml version="1.0" encoding="UTF-8" standalone="no"?>
<!DOCTYPE svg PUBLIC "-//W3C//DTD SVG 1.1//EN"
 "http://www.w3.org/Graphics/SVG/1.1/DTD/svg11.dtd">
<!-- Generated by graphviz version 2.40.1 (20161225.0304)
 -->
<!-- Title: workflow Pages: 1 -->
<svg width="620pt" height="298pt"
 viewBox="0.00 0.00 620.00 298.00" xmlns="http://www.w3.org/2000/svg" xmlns:xlink="http://www.w3.org/1999/xlink">
<g id="graph0" class="graph" transform="scale(1 1) rotate(0) translate(4 294)">
<title>workflow</title>
<polygon fill="#ffffff" stroke="transparent" points="-4,4 -4,-294 616,-294 616,4 -4,4"/>
<!-- place_6184d6847d594ec75c4c07514d4bb490d5e166df -->
<g id="node1" class="node">
<title>place_6184d6847d594ec75c4c07514d4bb490d5e166df</title>
<ellipse fill="#add8e6" stroke="#333333" cx="36" cy="-145" rx="36" ry="36"/>
<text text-anchor="middle" x="36" y="-142.8" font-family="Arial" font-size="9.00" fill="#000000">blank</text>
</g>
<!-- transition_ba7e1fe2e2c36556ceb098daab8915350d2162b2 -->
<g id="node7" class="node">
<title>transition_ba7e1fe2e2c36556ceb098daab8915350d2162b2</title>
<polygon fill="none" stroke="#333333" points="180,-181 108,-181 108,-109 180,-109 180,-181"/>
<text text-anchor="middle" x="144" y="-142.8" font-family="Arial" font-size="9.00" fill="#000000">create_code</text>
</g>
<!-- place_6184d6847d594ec75c4c07514d4bb490d5e166df&#45;&gt;transition_ba7e1fe2e2c36556ceb098daab8915350d2162b2 -->
<g id="edge1" class="edge">
<title>place_6184d6847d594ec75c4c07514d4bb490d5e166df&#45;&gt;transition_ba7e1fe2e2c36556ceb098daab8915350d2162b2</title>
<path fill="none" stroke="#333333" d="M72.2629,-145C81.969,-145 92.5352,-145 102.5004,-145"/>
<polygon fill="#333333" stroke="#333333" points="102.649,-146.7501 107.649,-145 102.649,-143.2501 102.649,-146.7501"/>
</g>
<!-- place_4858ba92ec21f96af837089e5c3d7e06fcbf313a -->
<g id="node2" class="node">
<title>place_4858ba92ec21f96af837089e5c3d7e06fcbf313a</title>
<ellipse fill="none" stroke="#333333" cx="252" cy="-190" rx="36" ry="36"/>
<text text-anchor="middle" x="252" y="-187.8" font-family="Arial" font-size="9.00" fill="#000000">deactivated</text>
</g>
<!-- transition_2c1e2b1daf8e75bbba55ee03e9b6e28c23686988 -->
<g id="node9" class="node">
<title>transition_2c1e2b1daf8e75bbba55ee03e9b6e28c23686988</title>
<polygon fill="none" stroke="#333333" points="396,-162 324,-162 324,-90 396,-90 396,-162"/>
<text text-anchor="middle" x="360" y="-123.8" font-family="Arial" font-size="9.00" fill="#000000">activate</text>
</g>
<!-- place_4858ba92ec21f96af837089e5c3d7e06fcbf313a&#45;&gt;transition_2c1e2b1daf8e75bbba55ee03e9b6e28c23686988 -->
<g id="edge7" class="edge">
<title>place_4858ba92ec21f96af837089e5c3d7e06fcbf313a&#45;&gt;transition_2c1e2b1daf8e75bbba55ee03e9b6e28c23686988</title>
<path fill="none" stroke="#333333" d="M283.2381,-171.4885C294.5568,-164.7811 307.5087,-157.106 319.5093,-149.9945"/>
<polygon fill="#333333" stroke="#333333" points="320.4734,-151.4574 323.8827,-147.4028 318.6891,-148.4464 320.4734,-151.4574"/>
</g>
<!-- transition_9485989ff514b5106b7738850fd73c23e8c1e3f7 -->
<g id="node11" class="node">
<title>transition_9485989ff514b5106b7738850fd73c23e8c1e3f7</title>
<polygon fill="none" stroke="#333333" points="396,-290 324,-290 324,-218 396,-218 396,-290"/>
<text text-anchor="middle" x="360" y="-251.8" font-family="Arial" font-size="9.00" fill="#000000">delete</text>
</g>
<!-- place_4858ba92ec21f96af837089e5c3d7e06fcbf313a&#45;&gt;transition_9485989ff514b5106b7738850fd73c23e8c1e3f7 -->
<g id="edge11" class="edge">
<title>place_4858ba92ec21f96af837089e5c3d7e06fcbf313a&#45;&gt;transition_9485989ff514b5106b7738850fd73c23e8c1e3f7</title>
<path fill="none" stroke="#333333" d="M283.2381,-208.5115C294.5568,-215.2189 307.5087,-222.894 319.5093,-230.0055"/>
<polygon fill="#333333" stroke="#333333" points="318.6891,-231.5536 323.8827,-232.5972 320.4734,-228.5426 318.6891,-231.5536"/>
</g>
<!-- place_9edfefa94b7affc5c196025d31e06b260d4439a0 -->
<g id="node3" class="node">
<title>place_9edfefa94b7affc5c196025d31e06b260d4439a0</title>
<ellipse fill="none" stroke="#333333" cx="252" cy="-100" rx="36" ry="36"/>
<text text-anchor="middle" x="252" y="-97.8" font-family="Arial" font-size="9.00" fill="#000000">code_created</text>
</g>
<!-- transition_6d0d5876e6710ebb4f309b5af01090cb97381d06 -->
<g id="node8" class="node">
<title>transition_6d0d5876e6710ebb4f309b5af01090cb97381d06</title>
<polygon fill="none" stroke="#333333" points="396,-72 324,-72 324,0 396,0 396,-72"/>
<text text-anchor="middle" x="360" y="-33.8" font-family="Arial" font-size="9.00" fill="#000000">print</text>
</g>
<!-- place_9edfefa94b7affc5c196025d31e06b260d4439a0&#45;&gt;transition_6d0d5876e6710ebb4f309b5af01090cb97381d06 -->
<g id="edge4" class="edge">
<title>place_9edfefa94b7affc5c196025d31e06b260d4439a0&#45;&gt;transition_6d0d5876e6710ebb4f309b5af01090cb97381d06</title>
<path fill="none" stroke="#333333" d="M283.2381,-81.4885C294.5568,-74.7811 307.5087,-67.106 319.5093,-59.9945"/>
<polygon fill="#333333" stroke="#333333" points="320.4734,-61.4574 323.8827,-57.4028 318.6891,-58.4464 320.4734,-61.4574"/>
</g>
<!-- place_9edfefa94b7affc5c196025d31e06b260d4439a0&#45;&gt;transition_2c1e2b1daf8e75bbba55ee03e9b6e28c23686988 -->
<g id="edge6" class="edge">
<title>place_9edfefa94b7affc5c196025d31e06b260d4439a0&#45;&gt;transition_2c1e2b1daf8e75bbba55ee03e9b6e28c23686988</title>
<path fill="none" stroke="#333333" d="M287.0645,-108.4415C297.1214,-110.8626 308.1816,-113.5252 318.5823,-116.0291"/>
<polygon fill="#333333" stroke="#333333" points="318.3571,-117.7748 323.6278,-117.2437 319.1763,-114.372 318.3571,-117.7748"/>
</g>
<!-- place_0a2a5fb75e421181bc33cbe4cff3883b8bc3e0c5 -->
<g id="node4" class="node">
<title>place_0a2a5fb75e421181bc33cbe4cff3883b8bc3e0c5</title>
<ellipse fill="none" stroke="#333333" cx="468" cy="-126" rx="36" ry="36"/>
<text text-anchor="middle" x="468" y="-123.8" font-family="Arial" font-size="9.00" fill="#000000">activated</text>
</g>
<!-- transition_5d310091f52b45f4f934e07e2dcd85dc77eee56a -->
<g id="node10" class="node">
<title>transition_5d310091f52b45f4f934e07e2dcd85dc77eee56a</title>
<polygon fill="none" stroke="#333333" points="612,-194 540,-194 540,-122 612,-122 612,-194"/>
<text text-anchor="middle" x="576" y="-155.8" font-family="Arial" font-size="9.00" fill="#000000">deactivate</text>
</g>
<!-- place_0a2a5fb75e421181bc33cbe4cff3883b8bc3e0c5&#45;&gt;transition_5d310091f52b45f4f934e07e2dcd85dc77eee56a -->
<g id="edge9" class="edge">
<title>place_0a2a5fb75e421181bc33cbe4cff3883b8bc3e0c5&#45;&gt;transition_5d310091f52b45f4f934e07e2dcd85dc77eee56a</title>
<path fill="none" stroke="#333333" d="M502.7664,-136.3011C513.0334,-139.3432 524.3674,-142.7015 534.9888,-145.8485"/>
<polygon fill="#333333" stroke="#333333" points="534.5211,-147.5351 539.8123,-147.2777 535.5155,-144.1793 534.5211,-147.5351"/>
</g>
<!-- place_1c8f15dab796c5c96b98fb02918198eec0c6b99e -->
<g id="node5" class="node">
<title>place_1c8f15dab796c5c96b98fb02918198eec0c6b99e</title>
<ellipse fill="none" stroke="#333333" cx="468" cy="-36" rx="36" ry="36"/>
<text text-anchor="middle" x="468" y="-33.8" font-family="Arial" font-size="9.00" fill="#000000">printed</text>
</g>
<!-- place_b639f5cc719831458c83999303237e8499c0cabe -->
<g id="node6" class="node">
<title>place_b639f5cc719831458c83999303237e8499c0cabe</title>
<ellipse fill="none" stroke="#333333" cx="468" cy="-254" rx="36" ry="36"/>
<text text-anchor="middle" x="468" y="-251.8" font-family="Arial" font-size="9.00" fill="#000000">deleted</text>
</g>
<!-- transition_ba7e1fe2e2c36556ceb098daab8915350d2162b2&#45;&gt;place_4858ba92ec21f96af837089e5c3d7e06fcbf313a -->
<g id="edge3" class="edge">
<title>transition_ba7e1fe2e2c36556ceb098daab8915350d2162b2&#45;&gt;place_4858ba92ec21f96af837089e5c3d7e06fcbf313a</title>
<path fill="none" stroke="#333333" d="M180.2629,-160.1095C191.094,-164.6225 202.9962,-169.5817 213.9391,-174.1413"/>
<polygon fill="#333333" stroke="#333333" points="213.2758,-175.7607 218.5643,-176.0685 214.622,-172.5299 213.2758,-175.7607"/>
</g>
<!-- transition_ba7e1fe2e2c36556ceb098daab8915350d2162b2&#45;&gt;place_9edfefa94b7affc5c196025d31e06b260d4439a0 -->
<g id="edge2" class="edge">
<title>transition_ba7e1fe2e2c36556ceb098daab8915350d2162b2&#45;&gt;place_9edfefa94b7affc5c196025d31e06b260d4439a0</title>
<path fill="none" stroke="#333333" d="M180.2629,-129.8905C191.094,-125.3775 202.9962,-120.4183 213.9391,-115.8587"/>
<polygon fill="#333333" stroke="#333333" points="214.622,-117.4701 218.5643,-113.9315 213.2758,-114.2393 214.622,-117.4701"/>
</g>
<!-- transition_6d0d5876e6710ebb4f309b5af01090cb97381d06&#45;&gt;place_1c8f15dab796c5c96b98fb02918198eec0c6b99e -->
<g id="edge5" class="edge">
<title>transition_6d0d5876e6710ebb4f309b5af01090cb97381d06&#45;&gt;place_1c8f15dab796c5c96b98fb02918198eec0c6b99e</title>
<path fill="none" stroke="#333333" d="M396.2629,-36C405.969,-36 416.5352,-36 426.5004,-36"/>
<polygon fill="#333333" stroke="#333333" points="426.649,-37.7501 431.649,-36 426.649,-34.2501 426.649,-37.7501"/>
</g>
<!-- transition_2c1e2b1daf8e75bbba55ee03e9b6e28c23686988&#45;&gt;place_0a2a5fb75e421181bc33cbe4cff3883b8bc3e0c5 -->
<g id="edge8" class="edge">
<title>transition_2c1e2b1daf8e75bbba55ee03e9b6e28c23686988&#45;&gt;place_0a2a5fb75e421181bc33cbe4cff3883b8bc3e0c5</title>
<path fill="none" stroke="#333333" d="M396.2629,-126C405.969,-126 416.5352,-126 426.5004,-126"/>
<polygon fill="#333333" stroke="#333333" points="426.649,-127.7501 431.649,-126 426.649,-124.2501 426.649,-127.7501"/>
</g>
<!-- transition_5d310091f52b45f4f934e07e2dcd85dc77eee56a&#45;&gt;place_4858ba92ec21f96af837089e5c3d7e06fcbf313a -->
<g id="edge10" class="edge">
<title>transition_5d310091f52b45f4f934e07e2dcd85dc77eee56a&#45;&gt;place_4858ba92ec21f96af837089e5c3d7e06fcbf313a</title>
<path fill="none" stroke="#333333" d="M539.8541,-165.2806C528.4241,-167.3799 515.7179,-169.5045 504,-171 429.946,-180.4514 343.0043,-185.7327 293.0234,-188.2118"/>
<polygon fill="#333333" stroke="#333333" points="292.9151,-186.4649 288.0067,-188.4573 293.0863,-189.9607 292.9151,-186.4649"/>
</g>
<!-- transition_9485989ff514b5106b7738850fd73c23e8c1e3f7&#45;&gt;place_b639f5cc719831458c83999303237e8499c0cabe -->
<g id="edge12" class="edge">
<title>transition_9485989ff514b5106b7738850fd73c23e8c1e3f7&#45;&gt;place_b639f5cc719831458c83999303237e8499c0cabe</title>
<path fill="none" stroke="#333333" d="M396.2629,-254C405.969,-254 416.5352,-254 426.5004,-254"/>
<polygon fill="#333333" stroke="#333333" points="426.649,-255.7501 431.649,-254 426.649,-252.2501 426.649,-255.7501"/>
</g>
</g>
</svg>
